<?xml version="1.0" encoding="UTF-8"?>
<svg version="1.1" xmlns="http://www.w3.org/2000/svg" width="84" height="79">
<path d="M0 0 C27.72 0 55.44 0 84 0 C84 26.07 84 52.14 84 79 C56.28 79 28.56 79 0 79 C0 52.93 0 26.86 0 0 Z " fill="#0A0A0A" transform="translate(0,0)"/>
<path d="M0 0 C5.48798961 0.88806622 8.53938517 5.02613455 12.3125 8.8125 C13.06595703 9.53759766 13.81941406 10.26269531 14.59570312 11.00976562 C15.30275391 11.71423828 16.00980469 12.41871094 16.73828125 13.14453125 C17.38837158 13.78753174 18.03846191 14.43053223 18.70825195 15.09301758 C20 17 20 17 19.92211914 18.99780273 C18.79089835 21.45402242 17.41567759 22.97276611 15.5078125 24.890625 C14.80269531 25.59960938 14.09757812 26.30859375 13.37109375 27.0390625 C12.62988281 27.76867187 11.88867188 28.49828125 11.125 29.25 C10.02478516 30.36761719 10.02478516 30.36761719 8.90234375 31.5078125 C8.19464844 32.21164063 7.48695312 32.91546875 6.7578125 33.640625 C6.1095752 34.28547852 5.46133789 34.93033203 4.79345703 35.59472656 C3 37 3 37 0 37 C1.31771678 34.05315679 2.70564581 32.08947478 5.07421875 29.90625 C5.65880859 29.35066406 6.24339844 28.79507813 6.84570312 28.22265625 C8.07983219 27.0683595 9.31949813 25.91995593 10.56445312 24.77734375 C11.14517578 24.22175781 11.72589844 23.66617188 12.32421875 23.09375 C12.86135498 22.59552734 13.39849121 22.09730469 13.9519043 21.58398438 C15.21147621 20.0355316 15.21147621 20.0355316 14.83300781 17.99291992 C13.41826328 14.60823071 10.66253565 12.3159025 8.0625 9.8125 C7.51142578 9.26658203 6.96035156 8.72066406 6.39257812 8.15820312 C3.46291398 5.22361321 3.46291398 5.22361321 0 3 C0 2.01 0 1.02 0 0 Z " fill="#F8F8F8" transform="translate(20,21)"/>
<path d="M0 0 C6.27 0 12.54 0 19 0 C19.33 0.99 19.66 1.98 20 3 C13.07 3 6.14 3 -1 3 C-0.67 2.01 -0.34 1.02 0 0 Z " fill="#F3F3F3" transform="translate(45,55)"/>
</svg>
